<svg width="19" height="14" viewBox="0 0 19 14" fill="none" xmlns="http://www.w3.org/2000/svg">
<path d="M13.0625 9.5C12.8735 9.5 12.6923 9.57902 12.5587 9.71967C12.4251 9.86032 12.35 10.0511 12.35 10.25C12.35 10.4489 12.4251 10.6397 12.5587 10.7803C12.6923 10.921 12.8735 11 13.0625 11H15.4375C15.6265 11 15.8077 10.921 15.9413 10.7803C16.0749 10.6397 16.15 10.4489 16.15 10.25C16.15 10.0511 16.0749 9.86032 15.9413 9.71967C15.8077 9.57902 15.6265 9.5 15.4375 9.5H13.0625ZM0 3.25C0 2.38805 0.325289 1.5614 0.904308 0.951903C1.48333 0.34241 2.26864 0 3.0875 0H15.9125C16.318 0 16.7194 0.0840639 17.094 0.247392C17.4686 0.410719 17.809 0.650112 18.0957 0.951903C18.3824 1.25369 18.6098 1.61197 18.765 2.00628C18.9201 2.40059 19 2.8232 19 3.25V10.75C19 11.1768 18.9201 11.5994 18.765 11.9937C18.6098 12.388 18.3824 12.7463 18.0957 13.0481C17.809 13.3499 17.4686 13.5893 17.094 13.7526C16.7194 13.9159 16.318 14 15.9125 14H3.0875C2.26864 14 1.48333 13.6576 0.904308 13.0481C0.325289 12.4386 0 11.612 0 10.75V3.25ZM17.575 4.5V3.25C17.575 2.78587 17.3998 2.34075 17.0881 2.01256C16.7763 1.68437 16.3534 1.5 15.9125 1.5H3.0875C2.64658 1.5 2.22371 1.68437 1.91194 2.01256C1.60016 2.34075 1.425 2.78587 1.425 3.25V4.5H17.575ZM1.425 6V10.75C1.425 11.716 2.1698 12.5 3.0875 12.5H15.9125C16.3534 12.5 16.7763 12.3156 17.0881 11.9874C17.3998 11.6592 17.575 11.2141 17.575 10.75V6H1.425Z" fill="#3F392D"/>
</svg>
