<svg width="24" height="24" viewBox="0 0 24 24" fill="none" xmlns="http://www.w3.org/2000/svg">
<path d="M12 1.5C10.8133 1.5 9.65327 1.85189 8.66658 2.51118C7.67988 3.17047 6.91085 4.10754 6.45672 5.2039C6.0026 6.30026 5.88378 7.50666 6.11529 8.67054C6.3468 9.83443 6.91824 10.9035 7.75736 11.7426C8.59647 12.5818 9.66557 13.1532 10.8295 13.3847C11.9933 13.6162 13.1997 13.4974 14.2961 13.0433C15.3925 12.5892 16.3295 11.8201 16.9888 10.8334C17.6481 9.84673 18 8.68669 18 7.5C17.998 5.90931 17.3652 4.38434 16.2404 3.25955C15.1157 2.13476 13.5907 1.50198 12 1.5ZM16.4325 6.75H14.604C14.566 5.63699 14.3661 4.53544 14.0107 3.48C14.6425 3.79699 15.1909 4.25813 15.6116 4.82617C16.0323 5.39421 16.3135 6.05323 16.4325 6.75ZM12.0165 11.9992H12.0105C11.7255 11.9092 11.0287 10.6335 10.9012 8.25H13.0988C12.9713 10.632 12.2782 11.9078 12.0165 11.9992ZM10.9012 6.75C11.0287 4.368 11.7217 3.09225 11.9835 3.00075H11.9895C12.2745 3.09075 12.9713 4.3665 13.0988 6.75H10.9012ZM9.99 3.48C9.63436 4.5354 9.43427 5.63695 9.396 6.75H7.5675C7.68658 6.05316 7.96789 5.39409 8.38871 4.82605C8.80953 4.258 9.35807 3.7969 9.99 3.48ZM7.5675 8.25H9.39525C9.43352 9.36305 9.63361 10.4646 9.98925 11.52C9.35746 11.203 8.80907 10.7419 8.38838 10.1738C7.9677 9.60579 7.6865 8.94677 7.5675 8.25ZM14.01 11.52C14.3656 10.4646 14.5657 9.36305 14.604 8.25H16.4325C16.3134 8.94684 16.0321 9.60591 15.6113 10.174C15.1905 10.742 14.6419 11.2031 14.01 11.52ZM21 22.5H3C2.60218 22.5 2.22064 22.342 1.93934 22.0607C1.65804 21.7794 1.5 21.3978 1.5 21V16.5C1.5 16.1022 1.65804 15.7206 1.93934 15.4393C2.22064 15.158 2.60218 15 3 15H21C21.3978 15 21.7794 15.158 22.0607 15.4393C22.342 15.7206 22.5 16.1022 22.5 16.5V21C22.5 21.3978 22.342 21.7794 22.0607 22.0607C21.7794 22.342 21.3978 22.5 21 22.5ZM3 16.5V21H21V16.5H3Z" fill="white"/>
<path d="M5.25 19.5C5.66421 19.5 6 19.1642 6 18.75C6 18.3358 5.66421 18 5.25 18C4.83579 18 4.5 18.3358 4.5 18.75C4.5 19.1642 4.83579 19.5 5.25 19.5Z" fill="white"/>
</svg>
