<svg width="18" height="19" viewBox="0 0 18 19" fill="none" xmlns="http://www.w3.org/2000/svg">
<path d="M15.75 6.125H12.9375V3.875C12.9375 3.57663 12.819 3.29048 12.608 3.0795C12.397 2.86853 12.1109 2.75 11.8125 2.75H6.1875C5.88913 2.75 5.60298 2.86853 5.392 3.0795C5.18103 3.29048 5.0625 3.57663 5.0625 3.875V6.125H2.25C1.95163 6.125 1.66548 6.24353 1.4545 6.4545C1.24353 6.66548 1.125 6.95163 1.125 7.25V16.25C1.125 16.5484 1.24353 16.8345 1.4545 17.0455C1.66548 17.2565 1.95163 17.375 2.25 17.375H15.75C16.0484 17.375 16.3345 17.2565 16.5455 17.0455C16.7565 16.8345 16.875 16.5484 16.875 16.25V7.25C16.875 6.95163 16.7565 6.66548 16.5455 6.4545C16.3345 6.24353 16.0484 6.125 15.75 6.125ZM2.25 16.25V7.25H5.0625V8.375H3.9375V9.5H5.0625V10.625H3.9375V11.75H5.0625V12.875H3.9375V14H5.0625V16.25H2.25ZM11.8125 16.25H6.1875V3.875H11.8125V16.25ZM15.75 16.25H12.9375V14H14.0625V12.875H12.9375V11.75H14.0625V10.625H12.9375V9.5H14.0625V8.375H12.9375V7.25H15.75V16.25Z" fill="#3F392D"/>
<path d="M7.875 5H10.125V6.125H7.875V5ZM7.875 7.25H10.125V8.375H7.875V7.25ZM7.875 9.5H10.125V10.625H7.875V9.5Z" fill="#3F392D"/>
</svg>
